External Loads File
version=1
nRows=62
nColumns=13
Range=5.000000e-03-10 seconds
endheader
time 	forceRightX 	forceRightY 	forceRightZ 	pointRightX 	pointRightY 	pointRightZ 	forceLeftX 	forceLeftY 	forceLeftZ 	pointLeftX 	pointLeftY 	pointLeftZ 		
7.505000 29.930790 -17.728617 -0.000000 0.153910 0.381215 -0.149156 -54.168153 874.986531 -0.000000 0.416530 0.256930 -0.384744
7.510000 24.819265 -18.880650 -0.000000 0.158441 0.391180 -0.149306 -1.670726 897.368665 -0.000000 0.412126 0.247024 -0.384206
7.515000 20.386746 -19.121237 -0.000000 0.163643 0.401126 -0.149522 -54.453495 917.199305 -0.000000 0.407411 0.237293 -0.383947
7.520000 11.664821 -23.874627 -0.000000 0.169341 0.410829 -0.149623 22.508887 940.459495 -0.000000 0.402122 0.227949 -0.383621
7.525000 4.976783 -28.432842 -0.000000 0.175501 0.420341 -0.149775 -28.778711 962.151698 -0.000000 0.396373 0.219275 -0.383311
7.530000 -6.311345 -34.579008 -0.000000 0.182116 0.429651 -0.150135 46.320091 982.511970 -0.000000 0.390077 0.210797 -0.382850
7.535000 -13.671862 -41.891824 -0.000000 0.189070 0.438504 -0.150505 0.424885 1002.893650 -0.000000 0.383316 0.202777 -0.382599
7.540000 -25.737937 -47.493975 -0.000000 0.196381 0.447282 -0.150998 72.537361 1016.963794 -0.000000 0.376101 0.195260 -0.382486
7.545000 -31.846531 -55.277241 -0.000000 0.204247 0.455270 -0.151417 31.283431 1032.236205 -0.000000 0.368477 0.188088 -0.382404
7.550000 -43.993248 -57.700983 -0.000000 0.212458 0.462294 -0.151734 121.686410 1034.428310 -0.000000 0.360992 0.181726 -0.382813
7.555000 -47.751026 -63.895006 -0.000000 0.220843 0.469004 -0.152113 82.455995 1042.047420 -0.000000 0.352697 0.175321 -0.382772
7.560000 -57.820374 -62.361932 -0.000000 0.229704 0.475083 -0.152415 167.261841 1029.712935 -0.000000 0.344157 0.169826 -0.382662
7.565000 -59.414276 -65.016654 -0.000000 0.239119 0.480647 -0.152342 130.818859 1026.314358 -0.000000 0.335336 0.165041 -0.382593
7.570000 -67.822451 -56.972854 -0.000000 0.247897 0.485530 -0.152968 221.911848 994.478403 -0.000000 0.326388 0.160799 -0.382560
7.575000 -67.730809 -53.563586 -0.000000 0.257390 0.489527 -0.153265 185.368601 978.214879 -0.000000 0.317237 0.157164 -0.382445
7.580000 -72.380518 -37.509377 -0.000000 0.267093 0.493088 -0.153491 264.355533 927.202316 -0.000000 0.308040 0.154245 -0.382342
7.585000 -70.591860 -25.313299 -0.000000 0.277194 0.495977 -0.153777 227.119296 895.661703 -0.000000 0.298804 0.151977 -0.382268
7.590000 -69.232169 0.660203 -0.000000 0.286900 0.498217 -0.154004 297.267330 822.763179 -0.000000 0.289496 0.150459 -0.382204
7.595000 -65.007860 22.618242 -0.000000 0.296844 0.499720 -0.154334 258.422163 774.522352 -0.000000 0.280217 0.149547 -0.382107
7.600000 -54.734117 55.995750 -0.000000 0.306628 0.500566 -0.154437 305.256834 684.426596 -0.000000 0.270960 0.149473 -0.382055
7.605000 -48.308745 85.133803 -0.000000 0.316385 0.500784 -0.154097 260.635669 622.134758 -0.000000 0.261791 0.150141 -0.382008
7.610000 -26.068623 121.487408 -0.000000 0.325670 0.500277 -0.154154 295.832279 514.401814 -0.000000 0.252693 0.151597 -0.381951
7.615000 -18.443413 152.806471 -0.000000 0.334405 0.499048 -0.153768 247.760590 443.675508 -0.000000 0.243718 0.153761 -0.381884
7.620000 10.088023 184.200341 -0.000000 0.342727 0.497079 -0.153423 249.412400 339.545983 -0.000000 0.234951 0.156681 -0.381713
7.625000 15.297580 214.149279 -0.000000 0.350297 0.494430 -0.152821 200.915851 268.655034 -0.000000 0.226377 0.160246 -0.381432
7.630000 46.992845 239.708300 -0.000000 0.357802 0.490948 -0.152341 181.708813 176.605919 -0.000000 0.217910 0.164308 -0.381229
7.635000 46.882857 269.467675 -0.000000 0.364770 0.486837 -0.151958 136.376709 114.282777 -0.000000 0.209685 0.169068 -0.380977
7.640000 79.907843 292.279548 -0.000000 0.371641 0.481909 -0.151101 104.291030 43.039918 -0.000000 0.201764 0.174325 -0.380624
7.645000 72.877912 325.257476 -0.000000 0.377862 0.476369 -0.150296 66.349656 -4.727317 -0.000000 0.193993 0.179986 -0.380333
7.650000 105.579718 349.262262 -0.000000 0.383894 0.470133 -0.150200 30.029005 -50.712965 -0.000000 0.185905 0.185836 -0.379171
7.655000 91.990926 386.964564 -0.000000 0.389580 0.463261 -0.149772 3.021732 -82.431412 -0.000000 0.178822 0.192380 -0.378982
7.660000 124.583474 413.257694 -0.000000 0.395052 0.455696 -0.149361 -29.707204 -104.909503 -0.000000 0.172067 0.199293 -0.378722
7.665000 103.195862 454.184610 -0.000000 0.400349 0.447472 -0.149226 -44.710169 -122.067856 -0.000000 0.165784 0.207266 -0.378507
7.670000 135.007742 480.505118 -0.000000 0.405323 0.438686 -0.149145 -69.279994 -126.126196 -0.000000 0.159827 0.215237 -0.378214
7.675000 103.928748 520.348417 -0.000000 0.410188 0.429678 -0.149199 -72.989458 -132.085721 -0.000000 0.154298 0.223363 -0.378112
7.680000 143.011233 540.955000 -0.000000 0.414351 0.420218 -0.149189 -89.758383 -122.282790 -0.000000 0.149227 0.232090 -0.377997
7.685000 101.176902 576.796303 -0.000000 0.418424 0.410371 -0.149424 -83.939657 -120.810794 -0.000000 0.144692 0.240994 -0.377929
7.690000 127.412559 595.579030 -0.000000 0.422170 0.400217 -0.149520 -88.586633 -105.986402 -0.000000 0.140666 0.250241 -0.377952
7.695000 75.226622 625.888152 -0.000000 0.425614 0.389856 -0.149623 -76.014392 -100.142753 -0.000000 0.137237 0.259686 -0.377952
7.700000 96.319170 642.986924 -0.000000 0.428682 0.379327 -0.149791 -72.479115 -83.815163 -0.000000 0.134217 0.269562 -0.377956
7.705000 38.471632 667.735138 -0.000000 0.431006 0.368903 -0.150070 -56.565400 -75.337539 -0.000000 0.131916 0.279626 -0.378051
7.710000 64.032931 683.808946 -0.000000 0.432982 0.358266 -0.150755 -48.471841 -59.355573 -0.000000 0.130145 0.289742 -0.378083
7.715000 4.476117 704.302300 -0.000000 0.434301 0.347390 -0.150988 -31.960597 -49.225585 -0.000000 0.128994 0.300095 -0.378195
7.720000 29.111484 721.042109 -0.000000 0.435288 0.336728 -0.150582 -20.926958 -35.289121 -0.000000 0.128453 0.310545 -0.378219
7.725000 -28.473791 738.391900 -0.000000 0.435180 0.325715 -0.151308 -5.845903 -24.016925 -0.000000 0.128514 0.321254 -0.378282
7.730000 9.194299 756.410826 -0.000000 0.434641 0.314868 -0.151227 5.871280 -12.602080 -0.000000 0.129242 0.331858 -0.378387
7.735000 -44.734761 773.218876 -0.000000 0.433403 0.304060 -0.151239 18.519821 -1.426352 -0.000000 0.130551 0.342946 -0.378454
7.740000 9.819356 793.413970 -0.000000 0.431484 0.293361 -0.151283 29.967664 5.798557 -0.000000 0.132541 0.353418 -0.378540
7.745000 -41.304231 812.709404 -0.000000 0.428983 0.282681 -0.151267 39.266017 15.304166 -0.000000 0.135109 0.363629 -0.378620
7.750000 5.719145 835.607117 -0.000000 0.425818 0.272189 -0.151165 48.370437 18.412220 -0.000000 0.138390 0.373957 -0.378723
7.755000 -43.512188 858.029394 -0.000000 0.422084 0.261869 -0.151096 53.067676 25.176769 -0.000000 0.142176 0.384148 -0.378794
7.760000 15.715284 883.985205 -0.000000 0.417799 0.251763 -0.151137 58.257655 23.432153 -0.000000 0.146650 0.394165 -0.378921
7.765000 -31.162900 909.726800 -0.000000 0.412951 0.241801 -0.151112 57.937812 26.867562 -0.000000 0.151593 0.403946 -0.379031
7.770000 31.361442 936.476924 -0.000000 0.407515 0.232405 -0.151127 58.121224 21.835666 -0.000000 0.157190 0.413178 -0.379140
7.775000 -12.794101 963.568450 -0.000000 0.401534 0.223021 -0.150916 53.403332 21.929592 -0.000000 0.163209 0.422290 -0.379250
7.780000 64.186768 987.318751 -0.000000 0.395145 0.214110 -0.150237 49.155382 14.082172 -0.000000 0.169820 0.431054 -0.379358
7.785000 23.039310 1013.101258 -0.000000 0.388294 0.205641 -0.149881 41.317605 10.930438 -0.000000 0.176941 0.439412 -0.379488
7.790000 101.292598 1029.628651 -0.000000 0.381155 0.197478 -0.149779 33.180677 1.930152 -0.000000 0.184478 0.447217 -0.379539
7.795000 58.858397 1050.478639 -0.000000 0.373639 0.190446 -0.149798 23.650790 -4.048783 -0.000000 0.192444 0.454750 -0.379568
7.800000 147.600764 1054.609035 -0.000000 0.365839 0.183733 -0.149858 12.679880 -13.494737 -0.000000 0.200035 0.461682 -0.379095
7.805000 104.737165 1066.664946 -0.000000 0.357694 0.177639 -0.150256 2.776037 -21.575351 -0.000000 0.208559 0.468092 -0.378959
7.810000 190.282447 1054.844334 -0.000000 0.349433 0.172044 -0.150089 -10.067979 -29.750392 -0.000000 0.227141 0.474077 -0.389899
